<svg width="309" height="309" viewBox="0 0 309 309" fill="none" xmlns="http://www.w3.org/2000/svg">
<path fill-rule="evenodd" clip-rule="evenodd" d="M212.269 137.174C203.961 130.098 192.632 118.519 159.023 115.946C125.584 113.386 101.246 131.385 101.246 131.385C101.246 131.385 98.1198 132.185 98.2248 139.748C98.3297 147.31 100.782 228.819 133.344 243.317C166.576 258.113 183.703 252.811 201.318 214.369C218.933 175.927 213.402 144.251 213.402 144.251C213.402 144.251 212.975 137.776 212.269 137.174Z" fill="#FF8A00"/>
<path fill-rule="evenodd" clip-rule="evenodd" d="M161.889 263.114C183.154 263.114 197.378 267.808 197.378 282.329C197.378 296.849 179.437 308.98 158.172 308.98C136.906 308.98 118.289 297.189 118.289 282.668C118.289 268.145 140.623 263.114 161.889 263.114ZM158.172 272.89C168.804 272.89 178.451 274.604 178.451 281.866C178.451 289.127 170.058 294.808 159.425 294.808C148.793 294.808 138.906 291.28 138.906 284.019C138.906 276.757 147.539 272.89 158.172 272.89Z" fill="#D02EF8" fill-opacity="0.38"/>
<path fill-rule="evenodd" clip-rule="evenodd" d="M167.679 279.956C167.679 279.956 202.05 273.847 196.066 270.41C190.082 266.974 180.922 270.59 174.128 273.592C167.333 276.594 166.419 278.884 166.419 278.884L167.679 279.956Z" fill="#FFB204"/>
<path fill-rule="evenodd" clip-rule="evenodd" d="M151.455 285.237C151.455 285.237 113.663 291.346 120.242 294.782C126.822 298.219 136.894 294.602 144.365 291.6C151.835 288.599 152.84 286.308 152.84 286.308L151.455 285.237Z" fill="#FFB204"/>
<path fill-rule="evenodd" clip-rule="evenodd" d="M152.141 281.748C152.141 281.748 108.361 273.772 115.983 269.286C123.605 264.799 135.273 269.521 143.927 273.44C152.582 277.358 153.746 280.348 153.746 280.348L152.141 281.748Z" fill="#FFB204"/>
<path fill-rule="evenodd" clip-rule="evenodd" d="M164.372 251.308C164.372 251.308 163.17 278.826 162.733 281.896C162.296 284.967 155.532 283.784 155.532 283.784L157.209 250.93L164.372 251.308Z" fill="#0D2AB5"/>
<path fill-rule="evenodd" clip-rule="evenodd" d="M165.912 284.011C165.912 284.011 209.692 291.986 202.07 296.472C194.448 300.959 182.78 296.237 174.125 292.319C165.471 288.4 164.307 285.41 164.307 285.41L165.912 284.011Z" fill="#FFB204"/>
<path fill-rule="evenodd" clip-rule="evenodd" d="M210.2 130.403C210.2 130.403 237.915 143.24 244.564 145.886C251.212 148.532 281.949 158.725 281.949 158.725C281.949 158.725 288.369 159.481 284.215 162.124C279.407 165.183 254.412 174.799 232.48 164.39C210.548 153.981 209.444 153.061 209.444 153.061C209.444 153.061 207.934 152.306 206.423 151.928C205.103 151.598 203.78 151.173 203.78 151.173L200.004 147.556C200.004 147.556 205.859 129.134 210.2 130.403Z" fill="#960098"/>
<path fill-rule="evenodd" clip-rule="evenodd" d="M209.797 127.887C209.797 127.887 237.513 140.724 244.162 143.37C250.81 146.015 283.813 158.475 283.813 158.475C283.898 158.789 288.06 159.908 283.435 161.873C279.544 163.527 256.39 173.309 232.078 161.873C214.607 153.656 217.35 154.974 217.35 154.974L213.196 142.134C213.196 142.134 207.037 136.803 205.644 133.071C204.26 129.365 207.635 127.254 209.797 127.887Z" fill="#9600DE"/>
<path fill-rule="evenodd" clip-rule="evenodd" d="M174.304 247.498C174.304 247.498 179.746 252.092 180.724 255.428C181.702 258.764 181.102 258.072 181.102 258.072C181.102 258.072 175.868 257.458 164.486 260.715C153.104 263.972 148.248 262.981 148.248 262.981C148.248 262.981 147.155 262.914 147.115 262.226C147.075 261.537 153.157 249.764 153.157 249.764L149.37 249.009L141.451 260.337L140.318 256.183L146.36 247.876L174.304 247.498Z" fill="#FF8A00"/>
<path fill-rule="evenodd" clip-rule="evenodd" d="M136.61 244.722C135.53 244.279 134.43 243.813 133.312 243.325C100.08 228.828 97.5772 147.319 97.4704 139.756C97.3633 132.194 100.554 131.394 100.554 131.394C100.554 131.394 125.392 113.395 159.518 115.955C193.818 118.528 205.38 130.107 213.858 137.183C214.579 137.785 215.014 144.259 215.014 144.259C215.014 144.259 220.659 175.936 202.682 214.378C193.958 233.033 185.351 243.884 174.927 248.42C176.64 244.882 180.022 237.09 186.686 220.309C200.982 184.307 194.581 147.59 189.769 137.985C189.769 137.985 176.127 118.865 186.686 138.741C197.244 158.617 190.96 193.138 187.456 209.735C184.752 222.546 174.511 241.905 169.98 250.071C161.837 252.013 152.538 250.637 141.307 246.543C135.969 237.603 130.136 226.64 128.048 218.392C123.848 201.795 116.314 167.273 128.972 147.397C141.63 127.521 125.276 146.642 125.276 146.642C119.507 156.246 111.834 192.963 128.972 228.965C132.073 235.478 134.58 240.637 136.61 244.722Z" fill="#AE00E4"/>
<path fill-rule="evenodd" clip-rule="evenodd" d="M186.4 161.794C185.535 158.986 182.737 154.471 174.626 154.512C165.296 154.556 163.665 162.438 164.585 167.858C167.548 185.345 162.884 218.702 156.594 232.762C155.356 235.531 160.048 237.991 164.595 238.04C169.141 238.09 171.796 235.702 173.058 232.942C179.333 219.206 191.346 177.842 186.4 161.794Z" fill="#C632D6"/>
<path fill-rule="evenodd" clip-rule="evenodd" d="M197.38 143.869C196.123 140.756 195.403 138.65 192.918 137.219C189.674 135.353 188.701 135.839 188.701 135.839C185.843 136.049 188.251 140.07 189.785 142.912C203.063 167.514 189.027 226.437 173.815 244.65C171.463 247.472 172.419 248.514 175.278 248.304L173.814 248.128C176.674 247.918 178.807 243.694 181.17 240.893C195.16 224.33 206.94 167.567 197.38 143.869Z" fill="#A200A3"/>
<path fill-rule="evenodd" clip-rule="evenodd" d="M117.354 149.112C118.61 145.999 119.33 143.893 121.815 142.462C125.059 140.596 126.032 141.082 126.032 141.082C128.891 141.292 126.483 145.313 124.949 148.155C111.671 172.757 125.707 231.68 140.918 249.893C143.27 252.715 142.314 253.757 139.455 253.547L140.919 253.371C138.06 253.161 135.927 248.937 133.563 246.136C119.573 229.573 107.793 172.81 117.354 149.112Z" fill="#A200A3"/>
<path fill-rule="evenodd" clip-rule="evenodd" d="M203.125 143.048C201.868 139.935 201.148 137.829 198.663 136.398C195.419 134.532 194.446 135.018 194.446 135.018C191.588 135.228 193.996 139.248 195.53 142.09C208.808 166.693 194.041 223.184 179.965 242.37C177.795 245.332 172.524 248.848 175.346 249.349C177.618 249.749 183.418 242.705 185.78 239.904C199.77 223.341 212.685 166.746 203.125 143.048Z" fill="#C632D6"/>
<path fill-rule="evenodd" clip-rule="evenodd" d="M113.658 143.856C115.006 140.782 115.788 138.698 118.315 137.342C121.613 135.573 122.571 136.088 122.571 136.088C125.422 136.383 122.896 140.33 121.278 143.125C107.274 167.321 120.353 224.227 133.852 243.824C135.933 246.848 141.097 250.52 138.261 250.937C135.979 251.269 130.391 244.056 128.113 241.186C114.622 224.213 103.396 167.259 113.658 143.856Z" fill="#C632D6"/>
<path fill-rule="evenodd" clip-rule="evenodd" d="M209.481 145.471C208.683 144.65 207.078 144.106 204.807 144.496C202.536 144.886 200.552 146.039 201.259 146.884C205.566 152.04 205.21 165.787 203.916 170.85C203.661 171.846 206.319 172.215 208.59 171.825C210.861 171.435 211.871 170.433 212.138 169.437C213.468 164.48 214.042 150.167 209.481 145.471Z" fill="#DB4EF1"/>
<path fill-rule="evenodd" clip-rule="evenodd" d="M173.566 170.91C172.655 169.469 170.484 168.476 167.056 169.064C163.628 169.653 161.158 171.407 161.153 173.043C161.127 182.434 156.085 206.123 157.657 214.351C157.959 215.934 160.738 216.785 164.166 216.196C167.594 215.607 169.373 213.922 170.069 212.218C173.529 203.742 178.767 179.149 173.566 170.91Z" fill="#DB4EF1"/>
<path fill-rule="evenodd" clip-rule="evenodd" d="M200.068 133.359C193.572 136.5 184.714 141.641 158.436 142.784C132.29 143.921 113.26 135.929 113.26 135.929C113.26 135.929 110.816 135.574 110.898 132.216C110.98 128.858 112.897 92.6687 138.358 86.2317C164.341 79.6625 177.732 82.0166 191.505 99.0845C205.278 116.152 200.954 130.217 200.954 130.217C200.954 130.217 200.62 133.091 200.068 133.359Z" fill="#FF8A00"/>
<path fill-rule="evenodd" clip-rule="evenodd" d="M155.501 61.0852C154.698 63.7187 153.603 68.028 150.354 68.9857C147.121 69.9385 144.768 63.2399 144.768 63.2399C144.768 63.2399 144.169 62.0993 144.476 60.1276C145.438 53.9365 140.037 23.2666 148.399 19.7145C151.658 18.33 160.363 15.2311 161.468 29.5963C161.845 34.5054 159.107 41.991 158.447 45.8342C156.84 55.1835 155.61 58.4517 155.61 58.4517C155.61 58.4517 155.569 60.8614 155.501 61.0852Z" fill="#26EBC4"/>
<path fill-rule="evenodd" clip-rule="evenodd" d="M151.887 58.1574C151.613 59.5715 151.355 61.8856 148.687 62.3998C146.032 62.9114 142.911 59.3144 142.911 59.3144C142.911 59.3144 141.763 57.5688 142.157 57.6431C145.729 58.3161 135.862 48.0066 137.321 39.0366C138.202 33.6213 148.401 33.211 151.671 40.9247C152.788 43.5608 151.948 47.9041 151.993 49.9678C152.101 54.9883 151.559 56.7432 151.559 56.7432C151.559 56.7432 151.91 58.0372 151.887 58.1574Z" fill="#26EBC4"/>
<path fill-rule="evenodd" clip-rule="evenodd" d="M152.314 20.5342C152.314 20.5342 157.997 19.5909 157.018 17.5131C156.039 15.4354 152.602 15.0914 151.354 17.1355C150.105 19.1796 149.832 19.7789 149.832 19.7789C149.832 19.7789 149.946 17.8602 147.2 17.5131C144.453 17.1661 142.869 19.8673 144.774 21.2894C146.678 22.7116 149.832 21.6671 149.832 21.6671C149.832 21.6671 149.671 23.3256 151.354 23.1776C153.036 23.0296 153.566 22.3751 153.619 21.2894C153.672 20.2037 152.314 20.5342 152.314 20.5342Z" fill="#FF086C"/>
<path fill-rule="evenodd" clip-rule="evenodd" d="M166.187 53.5053C163.559 56.854 159.975 62.3337 149.342 63.5515C138.762 64.7631 131.062 56.2452 131.062 56.2452C131.062 56.2452 131.398 53.6998 130.106 52.2876C122.688 44.1733 122.553 5.05265 142.945 0.898713C153.6 -1.27156 166.827 -0.677322 172.4 17.5145C177.973 35.7065 166.546 50.1566 166.546 50.1566C166.546 50.1566 166.411 53.2207 166.187 53.5053Z" fill="#FF2881" fill-opacity="0.23"/>
<path fill-rule="evenodd" clip-rule="evenodd" d="M174.01 57.9843C170.764 59.0314 166.339 60.6949 153.209 61.7478C140.147 62.7953 130.639 61.1312 130.639 61.1312C130.639 61.1312 130.336 59.8749 129.459 60.1759C128.325 60.5652 118.652 51.0195 126.815 48.8587C139.654 45.46 167.599 43.5719 175.529 46.9706C182.992 50.1688 174.452 57.0949 174.452 57.0949C174.452 57.0949 174.285 57.8953 174.01 57.9843Z" fill="#FF8A00"/>
<path fill-rule="evenodd" clip-rule="evenodd" d="M211.364 120.982C203.056 125.135 191.727 131.933 158.118 133.443C124.679 134.946 100.341 124.38 100.341 124.38C100.341 124.38 97.2145 123.91 97.3195 119.471C97.4245 115.032 99.8764 67.1832 132.439 58.6726C165.67 49.9871 182.797 53.0995 200.412 75.6659C218.027 98.2323 212.497 116.828 212.497 116.828C212.497 116.828 212.07 120.628 211.364 120.982Z" fill="#AE00E4"/>
<path fill-rule="evenodd" clip-rule="evenodd" d="M178.444 70.3853C189.276 70.32 197.706 81.7143 200.349 91.91C203.755 105.048 189.481 120.988 176.558 120.988C163.635 120.988 155.255 111.122 155.255 97.5745C155.255 84.0274 165.522 70.4632 178.444 70.3853Z" fill="#FF9014"/>
<path fill-rule="evenodd" clip-rule="evenodd" d="M177.197 76.5147C185.403 76.4652 191.789 85.0971 193.792 92.8211C196.372 102.774 185.559 114.849 175.769 114.849C165.979 114.849 159.63 107.375 159.63 97.1123C159.63 86.8495 167.408 76.5737 177.197 76.5147Z" fill="#00B2FF"/>
<path fill-rule="evenodd" clip-rule="evenodd" d="M177.048 81.7765C182.999 81.7406 187.63 88.0007 189.083 93.6024C190.954 100.821 183.112 109.578 176.012 109.578C168.912 109.578 164.307 104.158 164.307 96.7145C164.307 89.2716 169.948 81.8193 177.048 81.7765Z" fill="#FFF0ED"/>
<path fill-rule="evenodd" clip-rule="evenodd" d="M172.981 87.1515C175.975 87.1335 178.305 90.2832 179.036 93.1016C179.978 96.7334 176.032 101.14 172.46 101.14C168.887 101.14 166.571 98.4124 166.571 94.6674C166.571 90.9226 169.409 87.173 172.981 87.1515Z" fill="#0D2AB5"/>
<path fill-rule="evenodd" clip-rule="evenodd" d="M143.187 79.0608C151.716 79.0113 155.7 86.1682 157.781 93.8925C160.463 103.846 151.878 117.395 141.702 117.395C131.526 117.395 124.927 109.338 124.927 99.0749C124.927 88.8122 133.012 79.1198 143.187 79.0608Z" fill="#FF9014"/>
<path fill-rule="evenodd" clip-rule="evenodd" d="M143.766 84.6432C150.31 84.6081 153.367 89.6866 154.964 95.1677C157.022 102.23 150.435 111.845 142.627 111.845C134.819 111.845 129.756 106.127 129.756 98.845C129.756 91.5627 135.959 84.6851 143.766 84.6432Z" fill="#00B2FF"/>
<path fill-rule="evenodd" clip-rule="evenodd" d="M144.905 87.8305C149.303 87.8069 151.357 91.2198 152.43 94.9033C153.813 99.6496 149.386 106.111 144.139 106.111C138.892 106.111 135.49 102.269 135.49 97.3746C135.49 92.4806 139.658 87.8587 144.905 87.8305Z" fill="#FFF0ED"/>
<path fill-rule="evenodd" clip-rule="evenodd" d="M146.291 90.0371C149.011 90.0225 150.282 92.1332 150.945 94.4113C151.801 97.3467 149.063 101.343 145.818 101.343C142.573 101.343 140.468 98.9665 140.468 95.9397C140.468 92.913 143.046 90.0545 146.291 90.0371Z" fill="#0D2AB5"/>
<path fill-rule="evenodd" clip-rule="evenodd" d="M162.817 7.82372C164.865 7.19063 166.474 9.06213 167.677 11.2427C169.228 14.0525 168.393 18.7646 165.944 19.5021C163.496 20.2396 161.175 18.2858 160.242 15.1881C159.309 12.0904 160.374 8.57901 162.817 7.82372Z" fill="white" fill-opacity="0.41"/>
<path fill-rule="evenodd" clip-rule="evenodd" d="M163.851 8.52978C165.186 8.11717 166.235 9.33689 167.019 10.7581C168.029 12.5893 167.486 15.6603 165.89 16.141C164.294 16.6216 162.781 15.3483 162.173 13.3294C161.565 11.3105 162.259 9.02202 163.851 8.52978Z" fill="white" fill-opacity="0.41"/>
<path fill-rule="evenodd" clip-rule="evenodd" d="M98.8007 140.625C98.8007 140.625 71.0849 153.462 64.4364 156.108C57.7878 158.754 27.051 168.947 27.051 168.947C27.051 168.947 20.6313 169.703 24.7852 172.346C29.5928 175.405 54.5885 185.021 76.5205 174.612C98.4525 164.203 99.5559 163.283 99.5559 163.283C99.5559 163.283 101.066 162.528 102.577 162.15C103.898 161.82 105.22 161.395 105.22 161.395L108.997 157.778C108.997 157.778 103.141 139.356 98.8007 140.625Z" fill="#9600DE"/>
<path fill-rule="evenodd" clip-rule="evenodd" d="M99.2028 138.1C99.2028 138.1 71.487 150.937 64.8385 153.583C58.1899 156.228 25.1873 168.688 25.1873 168.688C25.1027 169.002 20.9401 170.121 25.565 172.087C29.4561 173.741 52.6104 183.522 76.9226 172.087C94.3933 163.869 97.3146 161.395 97.3146 161.395C97.3146 161.395 101.846 158.752 103.357 158.374C104.677 158.044 107.511 157.996 107.511 157.996L105.245 147.8C105.245 147.8 103.543 136.831 99.2028 138.1Z" fill="#9600DE"/>
<path fill-rule="evenodd" clip-rule="evenodd" d="M160.367 124.383C160.367 124.383 161.056 122.118 158.856 122.118C156.59 122.118 154.43 121.775 155.301 124.006C156.173 126.236 156.517 126.822 158.22 126.649C159.923 126.476 160.367 124.383 160.367 124.383Z" fill="#FF1F71"/>
<path d="M177.317 299.944C177.317 299.944 169.662 306.063 159.123 305.734C148.584 305.406 141.374 299.363 141.374 299.363" stroke="#F985FC" stroke-width="0.0017355" stroke-miterlimit="1.5" stroke-linecap="round" stroke-linejoin="round"/>
<path d="M171.482 295.829C171.482 295.829 165.919 299.15 158.106 299.349C150.293 299.549 144.844 296.779 144.844 296.779" stroke="#F985FC" stroke-width="0.00168895" stroke-miterlimit="1.5" stroke-linecap="round" stroke-linejoin="round"/>
<path d="M193.806 275.538C193.806 275.538 194.989 277.646 194.665 280.382C194.342 283.117 192.823 284.878 192.823 284.878" stroke="#F985FC" stroke-width="0.0017257" stroke-miterlimit="1.5" stroke-linecap="round" stroke-linejoin="round"/>
<path d="M189.731 278.209C189.731 278.209 189.913 280.556 188.579 282.872C187.245 285.187 185.28 286.161 185.28 286.161" stroke="#F985FC" stroke-width="0.00175051" stroke-miterlimit="1.5" stroke-linecap="round" stroke-linejoin="round"/>
<path d="M123.021 276.986C123.021 276.986 121.729 278.838 121.655 281.486C121.581 284.133 122.665 286.01 122.665 286.01" stroke="#F985FC" stroke-width="0.00171304" stroke-miterlimit="1.5" stroke-linecap="round" stroke-linejoin="round"/>
<path d="M126.186 280.077C126.186 280.077 125.726 282.289 126.579 284.669C127.431 287.049 129.002 288.235 129.002 288.235" stroke="#F985FC" stroke-width="0.00180511" stroke-miterlimit="1.5" stroke-linecap="round" stroke-linejoin="round"/>
<path d="M142.384 270.372C142.384 270.372 144.502 269.16 148.066 268.386C151.63 267.612 154.5 267.677 154.5 267.677" stroke="#F985FC" stroke-width="0.0012556" stroke-miterlimit="1.5" stroke-linecap="round" stroke-linejoin="round"/>
<path d="M179.721 268.249C179.721 268.249 176.882 267.256 172.442 266.857C168.001 266.458 164.609 266.829 164.609 266.829" stroke="#F985FC" stroke-width="0.00117687" stroke-miterlimit="1.5" stroke-linecap="round" stroke-linejoin="round"/>
<path d="M147.477 273.219C147.477 273.219 148.704 272.517 150.771 272.068C152.837 271.62 154.5 271.657 154.5 271.657" stroke="#F985FC" stroke-width="0.00125744" stroke-miterlimit="1.5" stroke-linecap="round" stroke-linejoin="round"/>
<path d="M171.355 271.268C171.355 271.268 170.318 270.836 168.646 270.687C166.973 270.538 165.665 270.733 165.665 270.733" stroke="#F985FC" stroke-width="0.00125661" stroke-miterlimit="1.5" stroke-linecap="round" stroke-linejoin="round"/>
</svg>
