<svg width="308" height="310" viewBox="0 0 308 310" fill="none" xmlns="http://www.w3.org/2000/svg">
<g clip-path="url(#clip0)">
<path fill-rule="evenodd" clip-rule="evenodd" d="M183.206 238.675C177.74 219.575 177.004 216.91 172.416 198.525C168.099 181.199 182.107 182.419 184.44 177.181C186.417 172.754 183.875 163.961 190.194 164.442C198.171 165.048 195.487 169.114 198.515 175.923C203.139 186.329 208.008 185.094 207.714 193.643C207.259 206.564 200.081 232.588 197.385 241.777C195.236 249.104 196.715 252.357 190.403 252.622C177.974 253.142 186.184 249.077 183.206 238.675Z" fill="#981B63"/>
<path fill-rule="evenodd" clip-rule="evenodd" d="M207.775 202.168L203.507 202.831L206.868 214.16C206.868 214.16 216.563 208.712 237.548 196.83C256.209 186.264 258.587 183.377 258.587 183.377L264.713 192.137C264.713 192.137 270.595 191.529 271.307 185.556C272.018 179.583 276.738 181.889 271.307 181.893C265.881 181.899 263.111 179.25 261.65 174.593C259.413 167.462 253.949 174.01 242.539 180.976C230.944 188.055 207.775 202.168 207.775 202.168Z" fill="#86FFFF"/>
<path fill-rule="evenodd" clip-rule="evenodd" d="M121.982 209.157L125.606 210.341L122.752 221.272C122.752 221.272 114.523 214.638 96.7093 200.188C80.8688 187.339 78.8496 184.159 78.8496 184.159L73.6493 192.181C73.6493 192.181 68.6566 190.857 68.0526 184.791C67.4487 178.726 63.4425 180.459 68.0526 181.125C72.6582 181.792 75.0093 179.478 76.2495 174.994C78.1489 168.128 82.7867 175.349 92.4726 183.711C102.315 192.209 121.982 209.157 121.982 209.157Z" fill="#86FFFF"/>
<path fill-rule="evenodd" clip-rule="evenodd" d="M61.8757 170.054C59.8632 169.351 57.2385 175.49 56.6543 178.576C56.0768 181.661 57.0591 241.872 72.6653 250.334C88.2648 258.795 75.7609 233.869 76.5417 218.874C77.3109 204.032 79.4551 196.198 80.9517 193.678C82.4484 191.158 75.2859 193.627 68.7162 182.79C62.1465 171.954 63.8882 170.756 61.8757 170.054Z" fill="#981B63"/>
<path fill-rule="evenodd" clip-rule="evenodd" d="M118.09 223.944L123.471 225.018L119.233 234.937C119.233 234.937 107.013 228.917 80.5605 215.805C57.0379 204.145 54.0394 201.26 54.0394 201.26L46.3172 208.539C46.3172 208.539 38.9031 207.338 38.0063 201.833C37.1095 196.329 31.1604 197.902 38.0063 198.506C44.8453 199.112 48.3368 197.011 50.1783 192.943C52.9988 186.712 59.8859 193.265 74.2691 200.853C88.8852 208.565 118.09 223.944 118.09 223.944Z" fill="#86FFFF"/>
<path fill-rule="evenodd" clip-rule="evenodd" d="M32.8821 181.804C30.7466 180.767 27.1905 187.681 26.2113 191.233C25.2393 194.785 19.7401 265.427 35.9707 277C52.1941 288.572 41.1726 258.041 43.6694 240.557C46.1367 223.252 49.3497 214.303 51.2703 211.509C53.1908 208.717 45.0476 210.847 39.0099 197.453C32.9722 184.059 35.0177 182.841 32.8821 181.804Z" fill="#CD1BA4"/>
<path fill-rule="evenodd" clip-rule="evenodd" d="M25.1197 184.786C25.1197 184.786 20.4376 227.544 23.5666 231.857C26.6957 236.17 30.3685 237.359 31.0249 225.37C31.6812 213.381 36.045 179.124 36.045 179.124C36.045 179.124 30.5348 167.385 27.7075 174.917C24.8802 182.449 25.1197 184.786 25.1197 184.786Z" fill="#F6562D"/>
<path fill-rule="evenodd" clip-rule="evenodd" d="M106.436 202.311L107.8 217.799C107.8 217.799 115.096 229.406 157.273 228.107C199.45 226.808 216.084 219.477 216.084 219.477L218.818 181.697L105.845 190.712L106.436 202.311Z" fill="#EF6E33"/>
<path fill-rule="evenodd" clip-rule="evenodd" d="M97.9324 189.616L99.504 208.544C99.504 208.544 107.909 222.73 156.495 221.142C205.08 219.555 224.24 210.596 224.24 210.596L227.391 164.423L97.2518 175.44L97.9324 189.616Z" fill="#981B63"/>
<path fill-rule="evenodd" clip-rule="evenodd" d="M98.1597 106.711C98.1597 106.711 88.6249 129.33 84.5066 143.897C80.3882 158.463 78.2695 183.688 80.6268 187.596C82.9772 191.504 94.8621 205.242 151.811 206.307C208.759 207.373 245.116 188.307 245.116 188.307C245.116 188.307 250.174 166.516 243.586 146.62C236.998 126.725 232.999 113.106 232.999 113.106C232.999 113.106 229.133 97.9653 168.137 97.5861C107.14 97.2076 98.1597 106.711 98.1597 106.711Z" fill="#CD1BA4"/>
<path fill-rule="evenodd" clip-rule="evenodd" d="M95.4821 97.5794C96.1626 97.0978 89.743 127.49 154.921 131.761C226.463 136.449 242.073 100.731 237.73 97.5794C237.73 97.5794 188.331 70.7224 151.385 74.0371C114.432 77.3517 95.4821 97.5794 95.4821 97.5794Z" fill="#D94BEF"/>
<path fill-rule="evenodd" clip-rule="evenodd" d="M222.062 111.388C215.208 126.314 106.019 128.669 106.019 108.66C106.019 94.9809 225.984 102.838 222.062 111.388Z" fill="#981B63"/>
<path fill-rule="evenodd" clip-rule="evenodd" d="M209.753 111.708C204.565 120.505 121.926 121.893 121.926 110.1C121.926 102.037 212.722 106.668 209.753 111.708Z" fill="#CD1BA4"/>
<path fill-rule="evenodd" clip-rule="evenodd" d="M154.806 151.972C157.76 155.307 156.897 161.984 146.584 169.242C136.27 176.5 131.801 177.226 128.918 173.597C126.034 169.968 134.039 160.243 139.301 156.323C143.37 153.291 151.846 148.638 154.806 151.972Z" fill="#21E4A8"/>
<path fill-rule="evenodd" clip-rule="evenodd" d="M91.6181 144.619C87.6268 146.563 85.9097 153.061 92.7241 163.725C99.5382 174.39 103.403 176.778 107.44 174.534C111.477 172.291 107.73 160.235 104.335 154.594C101.71 150.231 95.6159 142.677 91.6181 144.619Z" fill="#21E4A8"/>
<path fill-rule="evenodd" clip-rule="evenodd" d="M161.68 0.144641C151.638 0.430973 144.888 4.44291 140.231 9.45412C133.638 16.5394 129.168 21.617 127.653 23.9544C123.941 29.686 132.783 35.8458 161.178 35.3938C188.373 34.9606 196.877 28.0016 193.472 22.2102C192.22 20.0771 187.06 12.0943 182.583 8.08643C178.113 4.0819 171.085 -0.12364 161.68 0.144641Z" fill="#CD1BA4"/>
<path fill-rule="evenodd" clip-rule="evenodd" d="M129.663 26.6309C129.635 26.5024 132.175 22.8685 158.077 22.5529C184.233 22.233 190.589 26.2637 190.667 26.6182C191.08 28.5339 190.077 32.893 160.554 34.0497C131.024 35.2056 130.07 28.5474 129.663 26.6309Z" fill="#64003B"/>
<path fill-rule="evenodd" clip-rule="evenodd" d="M146.724 10.5138L164.741 10.9601C164.741 10.9601 166.811 3.86196 173.013 0.852358C179.215 -2.15795 176.114 -6.35742 176.114 -6.35742L160.587 -2.78218C160.587 -2.78218 147.313 3.82522 146.724 10.5138Z" fill="#EF6E33"/>
<path fill-rule="evenodd" clip-rule="evenodd" d="M166.079 114.837C135.63 114.258 136.17 112.798 135.805 111.536C135.679 111.119 133.771 104.501 135.616 103.947C139.348 102.824 150.728 101.003 165.771 101.249C181.332 101.504 191.617 102.465 195.651 103.608C197.44 104.114 196.486 110.83 196.486 111.799C196.486 112.873 189.99 115.29 166.079 114.837Z" fill="#501D26"/>
<path fill-rule="evenodd" clip-rule="evenodd" d="M184.743 75.719C184.871 75.2566 185.348 74.9855 185.809 75.1152L187.478 75.5845C187.939 75.7142 188.215 76.1971 188.087 76.6595L181.985 98.7103C181.857 99.1727 181.373 99.442 180.912 99.3122L179.243 98.843C178.782 98.7132 178.513 98.2323 178.641 97.7698L184.743 75.719Z" fill="#37C66D"/>
<path fill-rule="evenodd" clip-rule="evenodd" d="M176.944 71.9846C177.009 71.509 177.445 71.1755 177.919 71.2413L179.634 71.4795C180.108 71.5454 180.446 71.9864 180.381 72.462L177.29 95.1433C177.225 95.6189 176.782 95.9515 176.308 95.8856L174.593 95.6474C174.119 95.5816 173.788 95.1415 173.853 94.6659L176.944 71.9846Z" fill="#37C66D"/>
<path fill-rule="evenodd" clip-rule="evenodd" d="M149.206 63.9408C149.145 63.4647 149.479 63.0273 149.954 62.9654L151.671 62.7412C152.145 62.6792 152.585 63.0154 152.646 63.4915L155.555 86.1975C155.616 86.6737 155.275 87.1119 154.8 87.1739L153.083 87.3981C152.609 87.46 152.175 87.123 152.114 86.6468L149.206 63.9408Z" fill="#37C66D"/>
<path fill-rule="evenodd" clip-rule="evenodd" d="M162.025 50.197C162.012 49.7169 162.388 49.3162 162.866 49.3032L164.594 49.256C165.072 49.2429 165.476 49.6223 165.489 50.1024L166.794 98.9698C166.807 99.4499 166.424 99.8508 165.946 99.8638L164.217 99.911C163.74 99.924 163.343 99.5445 163.33 99.0644L162.025 50.197Z" fill="#37C66D"/>
<path fill-rule="evenodd" clip-rule="evenodd" d="M165.481 48.2366C165.733 47.1371 166.161 46.8758 166.947 47.1661C167.719 47.4563 171.009 50.3303 170.869 53.2919C170.722 56.2528 168.385 56.9208 167.172 53.698C165.965 50.4758 165.235 49.3368 165.481 48.2366Z" fill="#FF3769"/>
<path fill-rule="evenodd" clip-rule="evenodd" d="M166.116 44.4081C165.329 45.3819 165.393 45.9378 166.182 46.4325C166.961 46.9149 171.711 47.8535 174.197 45.7067C176.678 43.5541 175.667 41.0374 172.03 42.1686C168.398 43.3055 166.907 43.4401 166.116 44.4081Z" fill="#FF3769"/>
<path fill-rule="evenodd" clip-rule="evenodd" d="M162.911 43.3479C163.426 44.5021 164.027 44.7005 164.999 44.22C165.953 43.7425 169.74 39.9105 169.054 36.6901C168.358 33.4718 165.207 33.2206 164.179 37.007C163.159 40.7912 162.404 42.1914 162.911 43.3479Z" fill="#FF3769"/>
<path fill-rule="evenodd" clip-rule="evenodd" d="M161.894 43.8139C161.817 45.2799 161.228 45.7617 159.926 45.684C158.646 45.6011 152.719 43.2021 152.088 39.4491C151.468 35.6945 154.9 34.0119 157.706 37.6004C160.501 41.1904 161.959 42.3496 161.894 43.8139Z" fill="#FF3769"/>
<path fill-rule="evenodd" clip-rule="evenodd" d="M159.48 46.6468C160.645 47.5347 160.712 48.2939 159.917 49.3295C159.129 50.3442 153.823 53.9091 150.376 52.3219C146.933 50.7245 147.474 46.933 152.008 46.6245C156.536 46.3261 158.31 45.769 159.48 46.6468Z" fill="#FF3769"/>
<path fill-rule="evenodd" clip-rule="evenodd" d="M162.705 47.6699C164.12 47.306 164.75 47.7275 165.058 49.0004C165.354 50.2538 164.813 56.659 161.433 58.3847C158.049 60.1002 155.444 57.3079 158.03 53.5436C160.621 49.7895 161.295 48.044 162.705 47.6699Z" fill="#FF3769"/>
<path d="M163.388 50.0264C160.999 50.0264 159.062 48.3281 159.062 46.233C159.062 44.138 160.999 42.4396 163.388 42.4396C165.778 42.4396 167.715 44.138 167.715 46.233C167.715 48.3281 165.778 50.0264 163.388 50.0264Z" fill="#FCFF2F"/>
<path fill-rule="evenodd" clip-rule="evenodd" d="M139.928 76.8199C139.769 76.3673 140.005 75.8691 140.456 75.7081L142.089 75.1257C142.541 74.9647 143.042 75.2002 143.201 75.6527L150.78 97.233C150.939 97.6855 150.697 98.1861 150.246 98.3471L148.613 98.9295C148.161 99.0905 147.667 98.8527 147.508 98.4001L139.928 76.8199Z" fill="#37C66D"/>
<path fill-rule="evenodd" clip-rule="evenodd" d="M196.335 86.3138C196.54 85.8802 196.357 85.3602 195.924 85.1534L194.361 84.405C193.928 84.1981 193.406 84.3803 193.201 84.8139L183.447 105.49C183.242 105.924 183.432 106.447 183.864 106.654L185.428 107.402C185.86 107.609 186.376 107.424 186.581 106.99L196.335 86.3138Z" fill="#37C66D"/>
<path fill-rule="evenodd" clip-rule="evenodd" d="M164.366 86.0551C163.931 82.3697 162.851 72.9172 168.569 73.2117C174.294 73.5061 175.002 79.5614 172.54 89.0224C170.077 98.4834 166.822 97.9545 165.938 94.6024C165.047 91.2404 164.563 87.74 164.366 86.0551Z" fill="#37C66D"/>
<path fill-rule="evenodd" clip-rule="evenodd" d="M152.193 92.5061C148.901 89.7055 140.489 82.4938 145.676 78.107C150.868 73.7144 156.272 78.3208 161.621 88.4141C166.971 98.5074 163.732 100.696 160.315 98.5448C156.884 96.3909 153.696 93.7884 152.193 92.5061Z" fill="#37C66D"/>
<path fill-rule="evenodd" clip-rule="evenodd" d="M139.991 104.449C139.991 104.449 134.56 93.9637 150.943 92.4504C167.325 90.9364 168.974 96.825 168.974 96.825C168.974 96.825 176.537 91.4413 183.377 94.6366C190.218 97.8327 191.326 105.109 191.326 105.109C191.326 105.109 184.212 107.43 170.215 107.492C154.233 107.563 139.991 104.449 139.991 104.449Z" fill="#37C66D"/>
<path fill-rule="evenodd" clip-rule="evenodd" d="M132.993 112.199C132.993 112.199 128.728 65.5943 127.97 49.6777C127.219 33.7618 129.731 26.3966 129.731 26.3966C129.731 26.3966 133.695 22.5537 160.559 22.5537C187.416 22.5537 190.847 26.7694 190.847 26.7694C190.847 26.7694 195.12 36.7932 197.252 59.7834C199.385 82.7742 198.761 112.199 198.761 112.199C198.761 112.199 198.866 117.095 165.842 116.698C132.818 116.3 132.993 112.199 132.993 112.199Z" fill="white" fill-opacity="0.31"/>
<path fill-rule="evenodd" clip-rule="evenodd" d="M184.395 103.387C184.395 103.387 182.068 69.3674 181.378 57.7434C180.689 46.1199 180.839 38.1542 180.839 38.1542C180.839 38.1542 180.906 33.062 184.918 32.8584C188.929 32.6549 189.767 37.7937 189.767 37.7937C189.767 37.7937 190.941 47.8202 192.094 64.6022C193.246 81.3847 194.219 102.889 194.219 102.889C194.219 102.889 194.412 106.465 189.465 106.426C184.518 106.386 184.395 103.387 184.395 103.387Z" fill="#E5FFFF" fill-opacity="0.31"/>
<path fill-rule="evenodd" clip-rule="evenodd" d="M268.949 168.34C270.853 167.105 275.09 172.761 276.46 175.79C277.824 178.82 291.783 241.075 277.773 253.755C263.769 266.432 270.482 237.586 265.946 222.342C261.461 207.253 257.299 199.731 255.127 197.515C252.955 195.301 260.965 196.024 265.053 183.195C269.142 170.366 267.046 169.575 268.949 168.34Z" fill="#981B63"/>
<path fill-rule="evenodd" clip-rule="evenodd" d="M188.419 225.675L182.905 226.514L187.247 236.613C187.247 236.613 199.771 231.129 226.881 219.178C250.987 208.55 254.06 205.797 254.06 205.797L261.974 213.41C261.974 213.41 269.573 212.532 270.492 207.07C271.411 201.608 277.508 203.44 270.492 203.745C263.483 204.052 259.905 201.8 258.017 197.653C255.127 191.303 248.069 197.551 233.328 204.508C218.349 211.578 188.419 225.675 188.419 225.675Z" fill="#86FFFF"/>
<path fill-rule="evenodd" clip-rule="evenodd" d="M171.29 227.121L173.701 226.903L171.802 235.539C171.802 235.539 166.326 233.219 154.473 228.132C143.932 223.609 142.589 221.933 142.589 221.933L139.128 229.181C139.128 229.181 135.806 229.7 135.404 225.55C135.002 221.399 132.337 223.81 135.404 222.934C138.469 222.059 140.033 219.719 140.859 216.156C142.123 210.7 145.209 214.492 151.654 217.618C158.203 220.796 171.29 227.121 171.29 227.121Z" fill="#86FFFF"/>
<path fill-rule="evenodd" clip-rule="evenodd" d="M271.133 195.104C273.194 194.125 276.556 200.801 277.468 204.225C278.373 207.648 283.081 275.61 267.384 286.601C251.694 297.59 262.539 268.33 260.282 251.5C258.052 234.841 255.036 226.21 253.213 223.509C251.39 220.808 259.2 222.924 265.114 210.098C271.028 197.271 269.072 196.083 271.133 195.104Z" fill="#CD1BA4"/>
<path fill-rule="evenodd" clip-rule="evenodd" d="M280.182 199.978C280.182 199.978 284.37 242.789 281.192 247.066C278.014 251.342 274.329 252.488 273.811 240.492C273.293 228.496 269.325 194.189 269.325 194.189C269.325 194.189 274.969 182.514 277.708 190.079C280.448 197.644 280.182 199.978 280.182 199.978Z" fill="#F6562D"/>
<path fill-rule="evenodd" clip-rule="evenodd" d="M149.308 293.381C155.552 271.558 156.394 268.514 161.635 247.508C166.567 227.714 150.563 229.108 147.897 223.123C145.638 218.065 148.543 208.018 141.323 208.568C132.21 209.261 135.276 213.906 131.817 221.686C126.534 233.575 120.97 232.164 121.307 241.931C121.826 256.693 130.028 286.427 133.108 296.924C135.563 305.296 133.873 309.013 141.085 309.315C155.285 309.91 145.905 305.264 149.308 293.381Z" fill="#CD1BA4"/>
<path fill-rule="evenodd" clip-rule="evenodd" d="M133.197 211.022C133.197 211.022 130.067 253.984 134.565 258.118C139.062 262.253 144.057 263.237 144.057 251.227C144.057 239.217 147.383 204.762 147.383 204.762C147.383 204.762 139.16 193.343 135.933 201.022C132.705 208.7 133.197 211.022 133.197 211.022Z" fill="#F6562D"/>
</g>
<defs>
<clipPath id="clip0">
<rect width="308" height="310" fill="white" transform="matrix(-1 0 0 1 308 0)"/>
</clipPath>
</defs>
</svg>
