<svg width="199" height="274" viewBox="0 0 199 274" fill="none" xmlns="http://www.w3.org/2000/svg">
<path d="M71.2417 231.559C81.9394 231.559 90.6116 228.442 90.6116 224.598C90.6116 220.753 81.9394 217.636 71.2417 217.636C60.5439 217.636 51.8716 220.753 51.8716 224.598C51.8716 228.442 60.5439 231.559 71.2417 231.559Z" fill="#C732D7"/>
<path d="M128.814 229.58C139.511 229.58 148.184 226.464 148.184 222.619C148.184 218.775 139.511 215.658 128.814 215.658C118.116 215.658 109.444 218.775 109.444 222.619C109.444 226.464 118.116 229.58 128.814 229.58Z" fill="#C732D7"/>
<path fill-rule="evenodd" clip-rule="evenodd" d="M175.646 94.1295C175.646 94.1295 185.393 103.905 188.34 116.71C191.286 129.492 191.392 136.924 191.392 136.924C191.392 136.924 202.701 156.83 196.36 173.186C190.019 189.565 165.206 222.11 146.818 206.607C128.43 191.127 157.492 132.142 157.492 132.142L175.646 94.1295Z" fill="#F6562D"/>
<path fill-rule="evenodd" clip-rule="evenodd" d="M23.6144 93.9853C23.6144 93.9853 13.7854 103.686 10.7324 116.468C7.67965 129.226 7.51196 136.657 7.51196 136.657C7.51196 136.657 -3.96179 156.476 2.24284 172.879C8.44727 189.307 32.9882 222.042 51.5045 206.681C70.0206 191.343 41.4514 132.137 41.4514 132.137L23.6144 93.9853Z" fill="#F6562D"/>
<path d="M66.5305 219.063C84.7428 219.063 99.5069 213.489 99.5069 206.613C99.5069 199.737 84.7428 194.162 66.5305 194.162C48.3181 194.162 33.5542 199.737 33.5542 206.613C33.5542 213.489 48.3181 219.063 66.5305 219.063Z" fill="#B8344F"/>
<path d="M134.585 209.845C153.959 205.494 168.345 196.538 166.718 189.843C165.092 183.147 148.068 181.247 128.695 185.598C109.322 189.95 94.9356 198.905 96.5622 205.601C98.1888 212.297 115.212 214.197 134.585 209.845Z" fill="#B8344F"/>
<path fill-rule="evenodd" clip-rule="evenodd" d="M162.701 197.387C162.701 197.387 142.053 199.186 129.677 203.47C117.3 207.754 117.128 208.606 112.768 212.819C110.198 215.281 105.876 221.672 112.571 224.346C113.502 224.725 123.437 221.104 128.569 220.749C132.988 220.441 141.234 224.157 141.234 224.157C141.234 224.157 150.952 223.447 155.619 215.328C160.286 207.186 162.701 197.387 162.701 197.387Z" fill="#00FFE4"/>
<path fill-rule="evenodd" clip-rule="evenodd" d="M34.1543 210.685C34.1543 210.685 56.5077 201.312 71.7596 203.561C84.764 205.502 88.0428 207.561 90.9524 212.792C93.8595 218.023 94.2139 224.13 87.5184 226.804C86.1449 227.349 82.5019 218.804 70.7184 218.804C64.5817 218.804 58.6936 227.065 58.6936 227.065C58.6936 227.065 50.9249 227.088 42.4178 221.36C33.7752 215.538 34.1543 210.685 34.1543 210.685Z" fill="#00FFE4"/>
<path fill-rule="evenodd" clip-rule="evenodd" d="M167.245 95.9415C167.245 95.9415 185.522 106.593 182.113 141.908C178.703 177.246 177.761 181.767 173.596 190.312C169.428 198.833 168.975 197.72 168.975 197.72C168.975 197.72 155.641 186.075 141.248 192.205C126.855 198.312 113.979 209.176 113.979 209.176C113.979 209.176 113.6 212.892 105.644 212.798C97.691 212.727 96.1771 210.052 96.1771 210.052C96.1771 210.052 77.5258 199.448 62.5226 199.448C34.2688 199.448 33.1808 210.928 33.1808 210.928C26.8645 212.182 20.4005 201.176 17.1537 183.542C14.6355 169.861 18.1013 117.741 35.3814 95.9415C52.6616 74.1656 167.245 95.9415 167.245 95.9415Z" fill="#00FFE4"/>
<path fill-rule="evenodd" clip-rule="evenodd" d="M14.9554 59.1029C14.9554 59.1029 21.7592 33.6584 55.4925 19.4094C89.2282 5.18404 149.116 20.7111 163.484 40.6172C177.852 60.5232 189.554 102.584 159.813 116.715C130.075 130.845 127.865 132.762 63.6969 122.845C-3.40775 112.478 11.7751 64.5468 14.9554 59.1029Z" fill="#F6562D"/>
<path fill-rule="evenodd" clip-rule="evenodd" d="M121.691 105.086C119.261 106.654 118.273 108.151 118.944 110.41C119.613 112.669 120.617 113.125 122.624 112.559C124.631 111.994 126.666 109.113 125.29 106.769C124.843 106.01 123.478 103.927 121.691 105.086Z" fill="#86FFFF"/>
<path fill-rule="evenodd" clip-rule="evenodd" d="M123.328 113.845C123.328 113.845 123.119 110.532 120.797 110.532C118.476 110.532 114.036 111.194 114.117 115.005C114.137 115.881 116.022 117.088 116.637 118.295C118.247 121.467 118.922 125.633 118.619 130.793C118.23 137.467 117.77 140.687 118.725 140.971C119.68 141.231 121.45 135.669 122.405 129.041C123.36 122.437 123.522 116.33 123.328 113.845Z" fill="#B30AE3"/>
<path fill-rule="evenodd" clip-rule="evenodd" d="M114.135 106.011C116.741 107.289 117.908 108.662 117.522 110.982C117.138 113.301 116.197 113.869 114.135 113.538C112.072 113.207 109.694 110.579 110.77 108.094C111.119 107.289 112.217 105.064 114.135 106.011Z" fill="#86FFFF"/>
<path fill-rule="evenodd" clip-rule="evenodd" d="M114.115 109.262C115.639 109.759 116.884 111.581 115.474 112.41C114.063 113.262 112.052 111.889 112.124 110.871C112.193 109.83 112.966 108.883 114.115 109.262Z" fill="#B8344F"/>
<path fill-rule="evenodd" clip-rule="evenodd" d="M124.882 108.763C124.345 108.266 123.407 108.881 122.905 109.709C122.406 110.538 122.258 112.408 123.376 111.437C124.496 110.443 125.421 109.236 124.882 108.763Z" fill="#B8344F"/>
<path fill-rule="evenodd" clip-rule="evenodd" d="M97.6842 87.9629C97.6842 87.9629 96.6701 76.2229 93.4898 71.489C90.3095 66.7314 81.1499 61.7135 67.7319 67.0391C56.9429 71.3233 56.8125 77.9507 56.8125 77.9507C56.8125 77.9507 55.3897 101.857 77.9868 100.839C93.8909 100.105 97.6842 87.9629 97.6842 87.9629Z" fill="#5D1FD6"/>
<path fill-rule="evenodd" clip-rule="evenodd" d="M56.8348 58.0908C63.7714 54.351 97.6278 45.1671 101.78 82.8016C105.933 120.436 72.9852 112.057 64.6823 111.726C43.8698 110.874 19.771 78.1388 56.8348 58.0908Z" fill="#FACF0B"/>
<path fill-rule="evenodd" clip-rule="evenodd" d="M159.647 60.4228C152.23 56.3517 135.418 47.807 129.311 68.7308C123.206 89.6783 132.085 106.981 149.527 102.128C177.102 94.4358 173.442 68.0207 159.647 60.4228Z" fill="#FACF0B"/>
<path fill-rule="evenodd" clip-rule="evenodd" d="M130.885 66.3527C134.511 61.8792 142.797 55.3936 151.983 64.7668C161.17 74.1162 154.123 89.2646 151.324 91.963C145.965 97.1229 133.197 95.75 130.309 90.7321C124.197 80.1518 128.828 68.8853 130.885 66.3527Z" fill="#21E4A8"/>
<path fill-rule="evenodd" clip-rule="evenodd" d="M95.4387 87.1467C95.4387 87.1467 94.5359 77.2377 91.7047 73.2421C88.8734 69.2266 80.7193 64.9912 68.7742 69.4863C59.1695 73.1023 59.0534 78.6961 59.0534 78.6961C59.0534 78.6961 57.7868 98.8737 77.9034 98.0147C92.0618 97.3953 95.4387 87.1467 95.4387 87.1467Z" fill="#21E4A8"/>
<path d="M77.2222 90.056C81.5875 90.056 85.1263 86.8078 85.1263 82.8011C85.1263 78.7945 81.5875 75.5466 77.2222 75.5466C72.8569 75.5466 69.3181 78.7945 69.3181 82.8011C69.3181 86.8078 72.8569 90.056 77.2222 90.056Z" fill="#86FFFF"/>
<path d="M139.154 86.3332C143.519 86.3332 147.058 83.085 147.058 79.0783C147.058 75.0717 143.519 71.8238 139.154 71.8238C134.789 71.8238 131.25 75.0717 131.25 79.0783C131.25 83.085 134.789 86.3332 139.154 86.3332Z" fill="#86FFFF"/>
<path fill-rule="evenodd" clip-rule="evenodd" d="M136.898 219.051C135.86 216.975 133.899 213.974 129.448 215.908C124.998 217.841 126.433 224.438 126.433 224.438C126.433 224.438 131.446 230.112 131.427 230.728C131.415 231.367 133.593 233.679 136.867 231.7C140.132 229.7 139.957 225.425 139.957 225.425C139.957 225.425 138.043 221.341 136.898 219.051Z" fill="#F6562D"/>
<path fill-rule="evenodd" clip-rule="evenodd" d="M138.543 226.332C138.543 226.332 132.064 228.788 132.088 232.191C132.117 235.618 137.448 237.534 139.745 236.565C142.042 235.596 144.017 234.148 142.903 230.392C141.785 226.612 138.543 226.332 138.543 226.332Z" fill="#F6562D"/>
<path fill-rule="evenodd" clip-rule="evenodd" d="M122.418 223.259C122.418 223.259 121.442 217.331 117.26 217.809C113.083 218.313 109.155 220.195 110.211 224.145C111.263 228.068 114.022 230.256 118.037 231.38C123.455 232.917 123.214 224.698 122.418 223.259Z" fill="#F6562D"/>
<path fill-rule="evenodd" clip-rule="evenodd" d="M142.961 219.117C145.564 219.632 154.139 226.295 154.139 226.295L143.095 228.176C143.095 228.176 138.268 225.122 138.256 223.533C138.24 221.919 140.814 218.709 142.961 219.117Z" fill="#F6562D"/>
<path fill-rule="evenodd" clip-rule="evenodd" d="M80.5571 216.236C78.9276 215.313 77.2217 213.231 75.0556 217.609C72.8918 221.965 72.4119 226.367 73.975 229.113C75.5381 231.858 83.383 234.888 85.6969 232.568C88.0132 230.273 88.1929 228.616 86.9597 224.379C85.7289 220.142 82.5411 217.373 80.5571 216.236Z" fill="#F6562D"/>
<path fill-rule="evenodd" clip-rule="evenodd" d="M69.4006 217.344C66.9218 219.048 62.2251 225.037 60.7605 227.096C59.2934 229.155 57.3021 233.605 62.752 234.694C68.1994 235.783 68.5366 232.492 69.7773 229.013C71.0179 225.534 78.9466 223.072 76.0912 219.096C73.2333 215.143 69.4006 217.344 69.4006 217.344Z" fill="#F6562D"/>
<path fill-rule="evenodd" clip-rule="evenodd" d="M122.248 227.512C122.248 227.512 115.326 228.246 114.42 231.536C113.512 234.85 118.132 238.045 120.614 237.69C123.095 237.335 125.396 236.436 125.347 232.53C125.3 228.601 122.248 227.512 122.248 227.512Z" fill="#F6562D"/>
<path fill-rule="evenodd" clip-rule="evenodd" d="M81.6243 230.222C81.6243 230.222 74.7024 230.956 73.7965 234.246C72.8882 237.56 77.5085 240.755 79.9898 240.4C82.471 240.045 84.7725 239.146 84.7233 235.24C84.6765 231.311 81.6243 230.222 81.6243 230.222Z" fill="#F6562D"/>
<path fill-rule="evenodd" clip-rule="evenodd" d="M65.7983 228.01C65.7983 228.01 58.8764 228.744 57.9706 232.034C57.0623 235.348 61.6826 238.543 64.1639 238.188C66.6451 237.833 68.9466 236.934 68.8974 233.029C68.8506 229.1 65.7983 228.01 65.7983 228.01Z" fill="#F6562D"/>
<path fill-rule="evenodd" clip-rule="evenodd" d="M61.8067 219.987C60.5511 220.339 56.8171 221.785 54.4567 224.457C52.0963 227.129 50.243 228.969 50.243 228.969L56.4816 229.601C56.4816 229.601 60.4062 226.146 62.6678 225.762C64.927 225.377 72.5373 222.412 67.5713 219.632C65.3892 218.421 63.0664 219.611 61.8067 219.987Z" fill="#F6562D"/>
<path fill-rule="evenodd" clip-rule="evenodd" d="M142.056 231.64C142.056 231.64 140.163 231.08 138.758 233.475C137.343 235.849 136.614 239.291 137.91 241.222C139.206 243.153 140.538 245.366 142.473 244.891C143.19 244.711 145.5 249.852 146.092 249.522C146.785 249.109 145.712 243.799 145.691 243.154C145.68 242.531 146.303 241.255 146.536 240.414C147.456 237.085 143.341 231.417 142.056 231.64Z" fill="#FACF0B"/>
<path fill-rule="evenodd" clip-rule="evenodd" d="M123.359 233.693C123.359 233.693 121.498 233.04 119.968 235.364C118.428 237.665 117.516 241.066 118.708 243.059C119.899 245.051 121.111 247.326 123.069 246.947C123.795 246.802 125.828 252.051 126.437 251.751C127.151 251.372 126.363 246.016 126.376 245.371C126.398 244.748 127.088 243.505 127.366 242.676C128.462 239.397 124.654 233.534 123.359 233.693Z" fill="#FACF0B"/>
<path fill-rule="evenodd" clip-rule="evenodd" d="M74.0401 235.416C74.0401 235.416 75.8208 234.582 77.5925 236.741C79.3708 238.878 80.6429 242.17 79.6712 244.27C78.6996 246.371 77.7379 248.754 75.7498 248.571C75.013 248.499 73.5535 253.921 72.9156 253.683C72.1649 253.377 72.3742 247.971 72.2919 247.331C72.203 246.714 71.3835 245.545 71.0184 244.749C69.5765 241.596 72.7347 235.386 74.0401 235.416Z" fill="#FACF0B"/>
<path fill-rule="evenodd" clip-rule="evenodd" d="M59.8786 233.032C59.8786 233.032 61.7709 232.471 63.178 234.865C64.5952 237.238 65.3279 240.679 64.0333 242.611C62.7387 244.544 61.4089 246.757 59.4733 246.283C58.7567 246.104 56.451 251.247 55.8585 250.918C55.1653 250.506 56.233 245.194 56.2536 244.549C56.264 243.927 55.6403 242.651 55.4063 241.81C54.4835 238.482 58.5934 232.81 59.8786 233.032Z" fill="#FACF0B"/>
<path fill-rule="evenodd" clip-rule="evenodd" d="M114.853 71.4833C114.53 72.3118 92.4893 45.6835 69.2768 42.3461C45.0919 38.8667 35.5805 33.4936 39.231 23.008C42.2168 14.4397 54.0741 -3.54904 59.7849 0.616788C65.4982 4.75895 57.7961 10.771 57.5893 13.0433C57.3801 15.3392 48.2625 24.7361 67.2042 27.0794C91.901 30.1327 112.662 45.2574 112.662 45.2574C116.544 41.3756 128.583 34.6773 136.691 30.3458C149.127 23.7183 127.237 4.80616 136.276 4.33277C146.966 3.7647 167.569 31.5527 148.834 40.4287C130.099 49.3048 129.405 49.8966 124.618 55.2932C119.83 60.7135 114.853 71.4833 114.853 71.4833Z" fill="#00FFE4"/>
</svg>
