<svg width="130" height="34" viewBox="0 0 130 34" fill="none" xmlns="http://www.w3.org/2000/svg">
<path d="M0.88 33H22V25.8H9.136V0.983997H0.88V33ZM23.4824 17.016C23.4824 26.76 30.8264 33.576 40.6184 33.576C50.4104 33.576 57.7064 26.76 57.7064 17.016C57.7064 7.272 50.4104 0.455998 40.6184 0.455998C30.8264 0.455998 23.4824 7.272 23.4824 17.016ZM49.3064 17.016C49.3064 22.2 45.8984 26.28 40.6184 26.28C35.2904 26.28 31.8824 22.2 31.8824 17.016C31.8824 11.784 35.2904 7.752 40.6184 7.752C45.8984 7.752 49.3064 11.784 49.3064 17.016ZM60.2324 17.016C60.2324 27.192 68.0084 33.576 77.5604 33.576C83.6084 33.576 88.2644 31.128 91.7204 27.336V14.808H76.2644V21.672H83.6084V24.36C82.3124 25.416 80.0564 26.28 77.5604 26.28C72.3284 26.28 68.6324 22.248 68.6324 17.016C68.6324 11.784 72.3284 7.752 77.5604 7.752C80.5844 7.752 83.0324 9.432 84.3284 11.544L91.2404 7.896C88.8884 3.912 84.5684 0.455998 77.5604 0.455998C68.0084 0.455998 60.2324 6.84 60.2324 17.016ZM94.9199 17.016C94.9199 26.76 102.264 33.576 112.056 33.576C121.848 33.576 129.144 26.76 129.144 17.016C129.144 7.272 121.848 0.455998 112.056 0.455998C102.264 0.455998 94.9199 7.272 94.9199 17.016ZM120.744 17.016C120.744 22.2 117.336 26.28 112.056 26.28C106.728 26.28 103.32 22.2 103.32 17.016C103.32 11.784 106.728 7.752 112.056 7.752C117.336 7.752 120.744 11.784 120.744 17.016Z" fill="#020202"/>
</svg>
