<?xml version="1.0" encoding="UTF-8" standalone="no"?>
<svg
   xmlns:dc="http://purl.org/dc/elements/1.1/"
   xmlns:cc="http://creativecommons.org/ns#"
   xmlns:rdf="http://www.w3.org/1999/02/22-rdf-syntax-ns#"
   xmlns:svg="http://www.w3.org/2000/svg"
   xmlns="http://www.w3.org/2000/svg"
   xmlns:sodipodi="http://sodipodi.sourceforge.net/DTD/sodipodi-0.dtd"
   xmlns:inkscape="http://www.inkscape.org/namespaces/inkscape"
   width="49"
   height="49"
   viewBox="0 0 49 49"
   fill="none"
   version="1.1"
   id="svg4"
   sodipodi:docname="beanHeadDark.svg"
   inkscape:version="1.0.1 (1.0.1+r73)">
  <metadata
     id="metadata10">
    <rdf:RDF>
      <cc:Work
         rdf:about="">
        <dc:format>image/svg+xml</dc:format>
        <dc:type
           rdf:resource="http://purl.org/dc/dcmitype/StillImage" />
        <dc:title></dc:title>
      </cc:Work>
    </rdf:RDF>
  </metadata>
  <defs
     id="defs8" />
  <sodipodi:namedview
     pagecolor="#ffffff"
     bordercolor="#666666"
     borderopacity="1"
     objecttolerance="10"
     gridtolerance="10"
     guidetolerance="10"
     inkscape:pageopacity="0"
     inkscape:pageshadow="2"
     inkscape:window-width="1723"
     inkscape:window-height="853"
     id="namedview6"
     showgrid="false"
     inkscape:zoom="8.877551"
     inkscape:cx="30.056689"
     inkscape:cy="27.045515"
     inkscape:window-x="2000"
     inkscape:window-y="63"
     inkscape:window-maximized="0"
     inkscape:current-layer="svg4"
     inkscape:document-rotation="0" />
  <g
     id="g31">
    <g
       id="g60">
      <g
         id="g54">
        <path
           style="opacity:1;fill:#e5e5e5;fill-opacity:1;stroke-width:0.0875111"
           d="m 23.270143,22.70653 c -2.519758,-0.472819 -4.563072,-1.977253 -5.673195,-4.177013 -0.637475,-1.263185 -0.815299,-2.001163 -0.826799,-3.431272 -0.01052,-1.307397 0.169495,-2.199268 0.66234,-3.281631 0.599894,-1.317463 1.89496,-2.7586174 3.124539,-3.4769988 2.602898,-1.5207425 5.851422,-1.4681414 8.369276,0.1355177 4.051977,2.5807661 4.832407,8.0587741 1.66805,11.7084271 -0.916364,1.056901 -2.516148,2.023996 -3.960192,2.393999 -0.902504,0.231247 -2.493838,0.292256 -3.364019,0.128971 z"
           id="path44" />
        <path
           d="m 24.6475,0.684692 c -13.193,0 -23.90043,10.707408 -23.90043,23.900408 0,13.193 10.70743,23.9004 23.90043,23.9004 13.193,0 23.9004,-10.7074 23.9004,-23.9004 0,-13.193 -10.7074,-23.900408 -23.9004,-23.900408 z m 0,7.170128 c 3.9675,0 7.1701,3.20268 7.1701,7.17008 0,3.9675 -3.2026,7.1702 -7.1701,7.1702 -3.9675,0 -7.1701,-3.2027 -7.1701,-7.1702 0,-3.9674 3.2026,-7.17008 7.1701,-7.17008 z m 0,33.93858 c -5.9751,0 -11.2571,-3.0593 -14.3403,-7.6959 0.0717,-4.7562 9.5602,-7.3614 14.3403,-7.3614 4.7562,0 14.2685,2.6052 14.3402,7.3614 -3.0831,4.6366 -8.3651,7.6959 -14.3402,7.6959 z"
           fill="#e5e5e5"
           id="path2" />
      </g>
      <path
         style="opacity:1;fill:#483737;fill-opacity:1;stroke-width:0.0796511"
         d="m 23.050907,41.688806 c -4.793229,-0.457425 -9.250668,-2.969615 -12.18006,-6.864617 -0.541594,-0.720119 -0.54552,-0.728985 -0.494183,-1.115987 0.332833,-2.509017 3.576843,-4.815671 8.592995,-6.110051 4.162158,-1.074012 7.176251,-1.074012 11.338409,0 2.222418,0.573478 4.381066,1.464623 5.800555,2.394616 0.350465,0.229611 0.978481,0.761145 1.395593,1.181188 0.855605,0.861619 1.229269,1.501915 1.375839,2.35758 l 0.08653,0.505153 -0.289238,0.435623 c -0.437715,0.659246 -1.394765,1.770532 -2.140667,2.485651 -2.583516,2.476895 -5.88472,4.095877 -9.407916,4.613843 -1.080656,0.158874 -3.047691,0.215311 -4.077856,0.117001 z"
         id="path46" />
    </g>
    <g
       id="g64"
       transform="matrix(0.84355707,0,0,0.88530308,-25.058094,2.633451)">
      <path
         style="opacity:1;fill:#483737;fill-opacity:1;stroke-width:0.0796511"
         d="m 56.341174,24.820815 c -0.471236,-0.381615 -0.383012,-1.499452 0.435332,-5.515839 0.811813,-3.98433 1.400917,-5.912143 2.823431,-9.239529 0.967838,-2.2638596 1.434222,-2.8674396 2.21566,-2.8674396 0.66967,0 2.000946,0.9330004 2.930686,2.0539178 2.100953,2.5329598 2.256039,7.5078448 0.34242,10.9842198 -1.618658,2.940534 -4.532089,4.72406 -7.716865,4.72406 -0.698984,0 -0.890528,-0.0259 -1.030664,-0.13939 z"
         id="path48" />
      <path
         style="opacity:1;fill:#483737;fill-opacity:1;stroke-width:0.0796511"
         d="m 53.960866,23.699838 c -1.056582,-1.056582 -2.280549,-3.653298 -2.49338,-5.289849 -0.101938,-0.783842 -0.03732,-2.341871 0.134755,-3.248959 0.377285,-1.98888 1.610541,-4.330304 3.096469,-5.878861 0.827866,-0.8627591 1.492748,-1.3602887 2.473975,-1.8512698 1.024857,-0.5128121 2.493007,-0.8445469 2.820412,-0.6372841 0.146373,0.092661 0.138631,0.1117026 -1.071068,2.6346234 -1.756832,3.6640055 -2.306191,5.3340385 -3.262068,9.9165625 -0.886404,4.24947 -0.998793,4.65959 -1.276901,4.65959 -0.0647,0 -0.254689,-0.137049 -0.422194,-0.304553 z"
         id="path50" />
    </g>
  </g>
  <path
     style="fill:#241f1c;stroke-width:0.112644"
     d="m 22.227953,41.53372 c -2.675181,-0.444924 -4.948709,-1.348347 -7.22513,-2.87102 -1.276255,-0.853673 -2.982302,-2.459136 -3.882006,-3.653134 -0.638868,-0.847841 -0.684424,-0.947379 -0.634856,-1.387137 0.33886,-3.006359 6.047222,-6.043922 12.58682,-6.697764 3.381797,-0.338119 8.030711,0.598899 11.569817,2.331969 2.324392,1.138236 4.005346,2.895883 4.170456,4.360733 0.04731,0.419718 -0.0028,0.545182 -0.479573,1.200719 -0.292821,0.402615 -1.071609,1.26598 -1.730639,1.918589 -2.376242,2.353089 -5.262702,3.903636 -8.5996,4.619528 -1.372845,0.294527 -4.494774,0.390487 -5.775289,0.177517 z"
     id="path15" />
  <path
     style="fill:#241f1c;stroke-width:0.112644"
     d="m 22.459628,24.429646 c -0.243354,-0.347436 -0.220509,-0.937214 0.111115,-2.868606 0.728279,-4.24153 1.583738,-7.355608 2.804717,-10.20985 1.041577,-2.4348599 1.401563,-2.6706452 2.73829,-1.7935373 1.534694,1.0070063 2.450977,2.6917173 2.728599,5.0169023 0.222498,1.863502 -0.0925,3.809168 -0.897449,5.543374 -1.298911,2.798401 -3.862683,4.551556 -6.668605,4.560114 -0.536289,0.0016 -0.670031,-0.03904 -0.816667,-0.248397 z"
     id="path17" />
  <path
     style="fill:#241f1c;stroke-width:0.112644"
     d="m 20.326897,23.313967 c -0.522001,-0.60984 -1.206129,-1.946387 -1.607105,-3.139716 -0.292179,-0.869543 -0.319972,-1.086777 -0.302646,-2.365517 0.02365,-1.745336 0.271186,-2.777148 1.040422,-4.336782 0.645075,-1.307896 1.405459,-2.35508 2.311084,-3.18277 0.827799,-0.7565615 2.274576,-1.4804948 3.136556,-1.569459 0.355154,-0.036655 0.645734,-0.035577 0.645734,0.0024 0,0.037973 -0.412115,0.9954952 -0.91581,2.127829 -1.55591,3.497763 -1.958964,4.797191 -2.857257,9.21166 -0.574962,2.825527 -0.803414,3.717242 -0.952337,3.717242 -0.0554,0 -0.279784,-0.209197 -0.498641,-0.464882 z"
     id="path19" />
</svg>
