<?xml version="1.0" encoding="UTF-8" standalone="no"?>
<!DOCTYPE svg PUBLIC "-//W3C//DTD SVG 1.1//EN" "http://www.w3.org/Graphics/SVG/1.1/DTD/svg11.dtd">
<svg width="100%" height="100%" viewBox="0 0 600 338" version="1.1" xmlns="http://www.w3.org/2000/svg" xmlns:xlink="http://www.w3.org/1999/xlink" xml:space="preserve" xmlns:serif="http://www.serif.com/" style="fill-rule:evenodd;clip-rule:evenodd;stroke-linecap:round;stroke-linejoin:round;stroke-miterlimit:1.5;">
    <path d="M-163.602,242.956C-186.023,207.345 -197.147,161.542 -117.412,150.544C-112.485,149.864 -107.581,149.558 -102.721,149.58C-48.711,123.355 -9.758,171.062 55.515,187.86C102.63,199.984 179.778,177.779 224.411,152.476C317.084,99.938 352,60 439,45C535.726,28.323 625.9,53.688 665,79C730.807,121.603 716.161,209.969 716.609,214.723L716.635,215.016L620.105,225.024C568.898,201.13 473.034,179.095 426.51,184.534C359.243,192.398 304.68,206.517 222.628,256.079C169.182,288.362 122.102,298.685 69.296,286.791C-20.142,266.646 -24.508,215.196 -138.88,236.267C-148.547,238.048 -156.732,240.302 -163.602,242.956Z" style="fill:rgb(0,255,168);fill-rule:nonzero;"/>
    <g transform="matrix(0.62698,0.0417369,-0.0214922,1.21757,-1.99406,-2938.85)">
        <path d="M-40,2554.37C-40,2554.37 -37.384,2562.31 15.162,2572.51C67.709,2582.72 160.189,2601.43 233.913,2605.26C307.636,2609.09 358.82,2602.03 477.254,2569.99C598.937,2537.08 639.845,2520.71 728.848,2511.57C795.149,2504.75 863.47,2501.53 984.287,2518.76C1105.1,2535.99 1146.47,2552.71 1195,2570.67" style="fill:none;stroke:white;stroke-width:40.88px;"/>
    </g>
</svg>
